<svg viewBox="0 0 320 180" role="img" aria-label="MLambda.Actors: a guardian hierarchy supervising child actors that exchange messages" xmlns="http://www.w3.org/2000/svg">
  <rect class="box box--accent" x="130" y="18" width="60" height="30" rx="4"/><text class="sub" x="160" y="37" text-anchor="middle">root</text>
  <rect class="box" x="60" y="70" width="60" height="30" rx="4"/><text class="sub" x="90" y="89" text-anchor="middle">system</text>
  <rect class="box" x="200" y="70" width="60" height="30" rx="4"/><text class="sub" x="230" y="89" text-anchor="middle">user</text>
  <path class="arrow" d="M160 48V60H90V70"/><path class="arrow" d="M160 60H230V70"/>
  <rect class="box" x="150" y="126" width="46" height="26" rx="4"/><rect class="box" x="208" y="126" width="46" height="26" rx="4"/><rect class="box" x="266" y="126" width="46" height="26" rx="4"/>
  <path class="arrow" d="M230 100V112H173V126"/><path class="arrow" d="M230 112V126"/><path class="arrow" d="M230 112H289V126"/>
  <text class="sub" x="173" y="143" text-anchor="middle">actor</text><text class="sub" x="231" y="143" text-anchor="middle">actor</text><text class="sub" x="289" y="143" text-anchor="middle">actor</text>
  <path class="msg" d="M196 139H208"/><path class="msg" d="M254 139H266"/>
  <text class="sub" x="90" y="120" text-anchor="middle">supervision</text>
  <text class="sub" x="90" y="136" text-anchor="middle">one-for-one · all-for-one</text>
  <text class="sub" x="90" y="160" text-anchor="middle">gossip · mTLS · gRPC</text>
</svg>
